<?xml version="1.0" encoding="UTF-8" standalone="no"?><svg xmlns="http://www.w3.org/2000/svg" xmlns:xlink="http://www.w3.org/1999/xlink" fill="#000000" height="44.1" preserveAspectRatio="xMidYMid meet" version="1" viewBox="-0.1 -0.1 34.4 44.1" width="34.4" zoomAndPan="magnify"><defs><clipPath id="a"><path d="M 6 9 L 34.308594 9 L 34.308594 44 L 6 44 Z M 6 9"/></clipPath></defs><g><g clip-path="url(#a)" id="change1_6"><path d="M 29.929688 19.378906 C 28.359375 19.519531 27.292969 21.042969 27.664062 22.527344 L 27.386719 21.277344 C 27.109375 19.980469 25.90625 19.054688 24.609375 19.195312 C 23.035156 19.332031 21.96875 20.859375 22.339844 22.339844 L 22.0625 21.089844 C 21.785156 19.792969 20.582031 18.871094 19.285156 19.007812 C 17.710938 19.148438 16.648438 20.675781 17.019531 22.15625 L 14.519531 11.417969 C 14.195312 10.03125 12.804688 9.148438 11.417969 9.472656 C 10.03125 9.796875 9.148438 11.1875 9.472656 12.574219 L 13.964844 31.96875 C 14.011719 32.246094 13.6875 32.429688 13.453125 32.246094 C 12.160156 30.855469 10.539062 28.914062 10.492188 28.914062 C 9.613281 27.847656 7.992188 27.664062 6.929688 28.542969 C 5.863281 29.421875 5.679688 31.042969 6.558594 32.105469 C 6.652344 32.246094 9.84375 36.085938 12.574219 38.539062 C 16.046875 41.640625 18.730469 42.890625 20.027344 43.402344 C 21.324219 43.910156 22.574219 44.09375 23.3125 43.953125 C 24.054688 43.769531 29.699219 42.476562 29.699219 42.476562 C 30.8125 42.195312 31.738281 41.410156 32.152344 40.34375 L 32.941406 38.355469 C 34.421875 34.558594 34.699219 30.300781 33.773438 26.179688 L 32.707031 21.507812 C 32.429688 20.164062 31.226562 19.238281 29.929688 19.378906" fill="#b3247e"/></g><g id="change1_1"><path d="M 10.632812 6.140625 C 11.1875 6.003906 11.511719 5.449219 11.371094 4.9375 L 10.398438 0.820312 C 10.308594 0.21875 9.75 -0.105469 9.195312 0.03125 C 8.640625 0.171875 8.316406 0.726562 8.457031 1.234375 L 9.425781 5.355469 C 9.519531 5.910156 10.078125 6.234375 10.632812 6.140625" fill="#b3247e"/></g><g id="change1_2"><path d="M 5.449219 9.148438 C 5.679688 9.289062 5.957031 9.335938 6.234375 9.289062 C 6.464844 9.242188 6.699219 9.058594 6.882812 8.824219 C 7.160156 8.363281 7.019531 7.714844 6.558594 7.4375 L 2.949219 5.214844 C 2.484375 4.9375 1.835938 5.078125 1.558594 5.539062 C 1.28125 6.003906 1.421875 6.652344 1.882812 6.929688 L 5.449219 9.148438" fill="#b3247e"/></g><g id="change1_3"><path d="M 6.09375 13.363281 C 5.957031 12.804688 5.402344 12.480469 4.890625 12.621094 L 0.773438 13.59375 C 0.21875 13.730469 -0.105469 14.285156 0.03125 14.796875 C 0.171875 15.351562 0.726562 15.675781 1.234375 15.535156 L 5.355469 14.566406 C 5.910156 14.425781 6.234375 13.917969 6.09375 13.363281" fill="#b3247e"/></g><g id="change1_4"><path d="M 17.851562 10.632812 C 17.992188 11.1875 18.546875 11.511719 19.054688 11.371094 L 23.175781 10.398438 C 23.730469 10.261719 24.054688 9.707031 23.914062 9.195312 C 23.777344 8.640625 23.21875 8.316406 22.710938 8.457031 L 18.59375 9.425781 C 18.035156 9.519531 17.710938 10.074219 17.851562 10.632812" fill="#b3247e"/></g><g id="change1_5"><path d="M 15.953125 7.019531 C 16.183594 6.972656 16.417969 6.789062 16.601562 6.558594 L 18.824219 2.949219 C 19.101562 2.484375 18.960938 1.835938 18.5 1.558594 C 18.035156 1.28125 17.390625 1.421875 17.109375 1.882812 L 14.84375 5.492188 C 14.566406 5.957031 14.703125 6.605469 15.167969 6.882812 C 15.398438 7.019531 15.675781 7.066406 15.953125 7.019531" fill="#b3247e"/></g></g></svg>